<svg width="195" height="34" viewBox="0 0 195 34" fill="none" xmlns="http://www.w3.org/2000/svg">
<rect width="33.0594" height="33.2741" rx="15" fill="white"/>
<path d="M7.49802 8.91266C6.89539 8.91266 6.49365 9.31701 6.49365 9.92355V18.0108C6.49365 18.6174 6.89539 19.0217 7.49802 19.0217H9.5068V8.91266H7.49802Z" fill="white"/>
<path d="M9.50635 8.91266V19.0217L13.4802 18.0108V9.92355L9.50635 8.91266Z" fill="white"/>
<path d="M22.4579 25.0872H16.4316V33.2741H22.4579V25.0872Z" fill="white"/>
<path d="M30.3926 20.3359C30.1917 13.6639 26.2746 8.91266 21.4535 8.91266H17.2351L14.4229 9.92355V18.0108L16.1303 19.7294C16.3312 19.9316 16.4316 20.1337 16.4316 20.437V24.0762H22.4579V20.2348C22.4579 20.1337 22.4579 19.9315 22.5584 19.8304L23.161 18.6174C23.3619 18.213 23.6632 18.0108 24.0649 18.0108C26.2746 18.1119 28.3838 18.9206 29.9908 20.5381C30.0912 20.8413 30.493 20.6392 30.3926 20.3359Z" fill="white"/>
<rect width="33.0594" height="33.2741" rx="4" fill="url(#paint0_linear)"/>
<path d="M5.53025 8.91266C4.92762 8.91266 4.52588 9.31701 4.52588 9.92355V18.0108C4.52588 18.6174 4.92762 19.0217 5.53025 19.0217H7.53903V8.91266H5.53025Z" fill="white"/>
<path d="M7.53857 8.91266V19.0217L11.5124 18.0108V9.92355L7.53857 8.91266Z" fill="white"/>
<path d="M20.4906 24.3614H14.3647V33.2741H20.4906V24.3614Z" fill="white"/>
<path d="M28.4258 20.3359C28.2249 13.6639 24.3078 8.91266 19.4867 8.91266H15.2683L12.4561 9.92355V18.0108L14.1635 19.7294C14.3644 19.9316 14.4648 20.1337 14.4648 20.437V24.0762H20.4911V20.2348C20.4911 20.1337 20.4911 19.9315 20.5916 19.8304L21.1942 18.6174C21.3951 18.213 21.6964 18.0108 22.0981 18.0108C24.3078 18.1119 26.417 18.9206 28.024 20.5381C28.2382 20.7963 28.4258 20.6544 28.4258 20.3359Z" fill="white"/>
<path d="M65.1044 13.3231C64.0748 12.0877 62.803 11.47 61.2889 11.47C60.6227 11.47 60.0019 11.5891 59.4266 11.8273C58.8664 12.0654 58.3818 12.3929 57.973 12.8096C57.5642 13.2115 57.2387 13.6953 56.9965 14.2609C56.7694 14.8265 56.6558 15.4367 56.6558 16.0917C56.6558 16.7615 56.7694 17.3792 56.9965 17.9448C57.2387 18.5104 57.5642 19.0016 57.973 19.4183C58.397 19.8351 58.8891 20.1626 59.4493 20.4007C60.0095 20.6389 60.6151 20.7579 61.2662 20.7579C62.6894 20.7579 63.9688 20.1626 65.1044 18.9718V24.1516L64.6501 24.3079C63.9688 24.546 63.3329 24.7172 62.7424 24.8214C62.1519 24.9405 61.569 25 60.9936 25C59.8127 25 58.6771 24.7842 57.587 24.3525C56.512 23.906 55.5581 23.2883 54.7253 22.4994C53.9077 21.6957 53.2491 20.7505 52.7495 19.6639C52.2498 18.5625 52 17.3643 52 16.0693C52 14.7744 52.2423 13.5911 52.7268 12.5194C53.2264 11.4328 53.885 10.5025 54.7026 9.72855C55.5354 8.93968 56.4968 8.32942 57.587 7.89777C58.6771 7.45123 59.8202 7.22797 61.0163 7.22797C61.6977 7.22797 62.3639 7.30239 63.0149 7.45123C63.6811 7.58519 64.3776 7.80102 65.1044 8.09871V13.3231Z" fill="white"/>
<path d="M67.5343 13.0776H71.645V14.953C72.0841 14.2683 72.6216 13.7474 73.2575 13.3901C73.8934 13.018 74.6353 12.832 75.4832 12.832C75.5892 12.832 75.7027 12.832 75.8239 12.832C75.9601 12.832 76.1115 12.8468 76.2781 12.8766V16.7391C75.733 16.4712 75.1425 16.3372 74.5066 16.3372C73.5528 16.3372 72.8336 16.6201 72.3491 17.1857C71.8797 17.7364 71.645 18.5476 71.645 19.6193V24.5311H67.5343V13.0776Z" fill="white"/>
<path d="M82.2243 13.0776V19.53C82.2243 20.944 82.9208 21.651 84.3138 21.651C85.7067 21.651 86.4032 20.944 86.4032 19.53V13.0776H90.5139V20.3114C90.5139 21.8594 89.9916 23.0204 88.9469 23.7944C87.9173 24.5684 86.3729 24.9553 84.3138 24.9553C82.2546 24.9553 80.7027 24.5684 79.658 23.7944C78.6284 23.0204 78.1136 21.8594 78.1136 20.3114V13.0776H82.2243Z" fill="white"/>
<path d="M101.028 16.0247C100.271 15.6377 99.529 15.4442 98.8023 15.4442C98.4238 15.4442 98.1134 15.5186 97.8711 15.6674C97.644 15.8163 97.5305 16.0172 97.5305 16.2703C97.5305 16.4042 97.5456 16.5159 97.5759 16.6052C97.6213 16.6796 97.7046 16.754 97.8257 16.8284C97.962 16.9029 98.1512 16.9698 98.3935 17.0294C98.6509 17.0889 98.984 17.1633 99.3928 17.2526C100.528 17.4759 101.376 17.8778 101.936 18.4583C102.497 19.0239 102.777 19.7532 102.777 20.6463C102.777 21.3161 102.64 21.9189 102.368 22.4548C102.095 22.9906 101.717 23.4446 101.232 23.8167C100.748 24.1739 100.165 24.4493 99.4836 24.6428C98.8023 24.8512 98.0528 24.9553 97.2352 24.9553C95.6606 24.9553 94.1086 24.5163 92.5794 23.6381L94.0784 20.7803C95.2291 21.5543 96.3192 21.9412 97.3488 21.9412C97.7273 21.9412 98.0377 21.8594 98.2799 21.6957C98.5222 21.5319 98.6433 21.3235 98.6433 21.0705C98.6433 20.9217 98.6206 20.8026 98.5752 20.7133C98.5449 20.6091 98.4692 20.5198 98.3481 20.4454C98.2269 20.3561 98.0452 20.2816 97.803 20.2221C97.5759 20.1477 97.2731 20.0732 96.8945 19.9988C95.6227 19.7458 94.7294 19.3737 94.2146 18.8825C93.715 18.3764 93.4652 17.6843 93.4652 16.8061C93.4652 16.1661 93.5863 15.593 93.8285 15.087C94.0708 14.566 94.419 14.1269 94.8732 13.7697C95.3275 13.4125 95.8725 13.1371 96.5085 12.9436C97.1595 12.7501 97.8787 12.6533 98.666 12.6533C99.953 12.6533 101.202 12.8989 102.413 13.3901L101.028 16.0247Z" fill="white"/>
<path d="M104.861 6H108.972V14.5288C109.532 13.859 110.1 13.4125 110.675 13.1892C111.251 12.951 111.925 12.832 112.697 12.832C114.165 12.832 115.271 13.2338 116.013 14.0376C116.77 14.8265 117.148 15.8982 117.148 17.2526V24.5311H113.037V18.7485C113.037 18.168 112.992 17.6992 112.901 17.342C112.81 16.9847 112.659 16.7094 112.447 16.5159C112.084 16.2033 111.644 16.047 111.13 16.047C110.433 16.047 109.896 16.2554 109.517 16.6722C109.154 17.074 108.972 17.6545 108.972 18.4136V24.5311H104.861V6Z" fill="white"/>
<path d="M128.46 17.141C128.323 16.5754 128.043 16.1214 127.619 15.7791C127.195 15.4367 126.681 15.2656 126.075 15.2656C125.439 15.2656 124.917 15.4293 124.508 15.7568C124.114 16.0842 123.865 16.5456 123.759 17.141H128.46ZM123.645 19.4853C123.645 21.2268 124.478 22.0975 126.143 22.0975C127.036 22.0975 127.71 21.7403 128.164 21.0259H132.139C131.336 23.6455 129.33 24.9553 126.12 24.9553C125.136 24.9553 124.235 24.8139 123.418 24.5311C122.6 24.2335 121.896 23.8167 121.306 23.2808C120.73 22.745 120.284 22.105 119.966 21.3608C119.648 20.6165 119.489 19.783 119.489 18.8602C119.489 17.9076 119.64 17.0517 119.943 16.2926C120.246 15.5186 120.677 14.8637 121.238 14.3278C121.798 13.792 122.472 13.3827 123.259 13.0999C124.061 12.8022 124.962 12.6533 125.962 12.6533C126.946 12.6533 127.831 12.8022 128.619 13.0999C129.406 13.3827 130.072 13.7995 130.617 14.3502C131.162 14.9009 131.579 15.5781 131.866 16.3819C132.154 17.1708 132.298 18.0638 132.298 19.0611V19.4853H123.645Z" fill="white"/>
<path d="M134.648 13.0776H138.758V14.953C139.197 14.2683 139.735 13.7474 140.371 13.3901C141.007 13.018 141.749 12.832 142.597 12.832C142.703 12.832 142.816 12.832 142.937 12.832C143.074 12.832 143.225 12.8468 143.391 12.8766V16.7391C142.846 16.4712 142.256 16.3372 141.62 16.3372C140.666 16.3372 139.947 16.6201 139.462 17.1857C138.993 17.7364 138.758 18.5476 138.758 19.6193V24.5311H134.648V13.0776Z" fill="white"/>
<path d="M143.603 22.3878C143.603 22.0306 143.671 21.6957 143.808 21.3831C143.944 21.0556 144.133 20.7728 144.375 20.5347C144.618 20.2965 144.898 20.1105 145.216 19.9765C145.549 19.8425 145.897 19.7756 146.26 19.7756C146.624 19.7756 146.964 19.8425 147.282 19.9765C147.615 20.1105 147.903 20.2965 148.145 20.5347C148.388 20.7728 148.577 21.0556 148.713 21.3831C148.849 21.6957 148.918 22.0306 148.918 22.3878C148.918 22.745 148.849 23.0873 148.713 23.4148C148.577 23.7274 148.388 24.0027 148.145 24.2409C147.903 24.479 147.615 24.6651 147.282 24.7991C146.964 24.933 146.624 25 146.26 25C145.897 25 145.549 24.933 145.216 24.7991C144.898 24.6651 144.618 24.479 144.375 24.2409C144.133 24.0027 143.944 23.7274 143.808 23.4148C143.671 23.0873 143.603 22.745 143.603 22.3878Z" fill="white"/>
<path d="M155.341 18.7709C155.341 19.143 155.409 19.4928 155.546 19.8202C155.682 20.1328 155.864 20.4081 156.091 20.6463C156.333 20.8845 156.613 21.0705 156.931 21.2045C157.264 21.3384 157.62 21.4054 157.998 21.4054C158.362 21.4054 158.703 21.3384 159.02 21.2045C159.354 21.0705 159.634 20.8845 159.861 20.6463C160.103 20.4081 160.292 20.1328 160.429 19.8202C160.58 19.5076 160.656 19.1727 160.656 18.8155C160.656 18.4583 160.58 18.1234 160.429 17.8108C160.292 17.4834 160.103 17.2005 159.861 16.9624C159.634 16.7242 159.354 16.5382 159.02 16.4042C158.703 16.2703 158.362 16.2033 157.998 16.2033C157.635 16.2033 157.287 16.2703 156.954 16.4042C156.636 16.5382 156.356 16.7242 156.113 16.9624C155.886 17.2005 155.697 17.4759 155.546 17.7885C155.409 18.0862 155.341 18.4136 155.341 18.7709ZM160.519 6H164.653V24.5311H160.519V23.2585C159.641 24.3451 158.453 24.8884 156.954 24.8884C156.106 24.8884 155.326 24.7321 154.615 24.4195C153.903 24.1069 153.282 23.6753 152.752 23.1246C152.222 22.5738 151.806 21.9264 151.503 21.1821C151.215 20.4379 151.072 19.6342 151.072 18.7709C151.072 17.9522 151.208 17.1782 151.48 16.4489C151.768 15.7047 152.169 15.0572 152.684 14.5065C153.199 13.9557 153.812 13.5241 154.524 13.2115C155.25 12.8841 156.045 12.7203 156.908 12.7203C158.362 12.7203 159.566 13.219 160.519 14.2162V6Z" fill="white"/>
<path d="M175.967 17.141C175.831 16.5754 175.551 16.1214 175.127 15.7791C174.703 15.4367 174.188 15.2656 173.582 15.2656C172.946 15.2656 172.424 15.4293 172.015 15.7568C171.622 16.0842 171.372 16.5456 171.266 17.141H175.967ZM171.152 19.4853C171.152 21.2268 171.985 22.0975 173.65 22.0975C174.544 22.0975 175.217 21.7403 175.672 21.0259H179.646C178.844 23.6455 176.838 24.9553 173.628 24.9553C172.644 24.9553 171.743 24.8139 170.925 24.5311C170.107 24.2335 169.403 23.8167 168.813 23.2808C168.238 22.745 167.791 22.105 167.473 21.3608C167.155 20.6165 166.996 19.783 166.996 18.8602C166.996 17.9076 167.147 17.0517 167.45 16.2926C167.753 15.5186 168.185 14.8637 168.745 14.3278C169.305 13.792 169.979 13.3827 170.766 13.0999C171.569 12.8022 172.469 12.6533 173.469 12.6533C174.453 12.6533 175.339 12.8022 176.126 13.0999C176.913 13.3827 177.579 13.7995 178.125 14.3502C178.67 14.9009 179.086 15.5781 179.374 16.3819C179.661 17.1708 179.805 18.0638 179.805 19.0611V19.4853H171.152Z" fill="white"/>
<path d="M184.825 13.0776L187.596 18.9495L190.412 13.0776H195L188.936 24.5311H186.188L180.192 13.0776H184.825Z" fill="white"/>
<defs>
<linearGradient id="paint0_linear" x1="16.5297" y1="0" x2="16.5297" y2="33.2741" gradientUnits="userSpaceOnUse">
<stop stop-color="#FF8080"/>
<stop offset="0.885417" stop-color="#FF1C91"/>
</linearGradient>
</defs>
</svg>
