<svg width="195" height="34" viewBox="0 0 195 34" fill="none" xmlns="http://www.w3.org/2000/svg">
<path d="M65.1044 15.3231C64.0748 14.0877 62.803 13.47 61.2889 13.47C60.6227 13.47 60.0019 13.5891 59.4266 13.8273C58.8664 14.0654 58.3818 14.3929 57.973 14.8096C57.5642 15.2115 57.2387 15.6953 56.9965 16.2609C56.7694 16.8265 56.6558 17.4367 56.6558 18.0917C56.6558 18.7615 56.7694 19.3792 56.9965 19.9448C57.2387 20.5104 57.5642 21.0016 57.973 21.4183C58.397 21.8351 58.8891 22.1626 59.4493 22.4007C60.0095 22.6389 60.6151 22.7579 61.2662 22.7579C62.6894 22.7579 63.9688 22.1626 65.1044 20.9718V26.1516L64.6501 26.3079C63.9688 26.546 63.3329 26.7172 62.7424 26.8214C62.1519 26.9405 61.569 27 60.9936 27C59.8127 27 58.6771 26.7842 57.587 26.3525C56.512 25.906 55.5581 25.2883 54.7253 24.4994C53.9077 23.6957 53.2491 22.7505 52.7495 21.6639C52.2498 20.5625 52 19.3643 52 18.0693C52 16.7744 52.2423 15.5911 52.7268 14.5194C53.2264 13.4328 53.885 12.5025 54.7026 11.7286C55.5354 10.9397 56.4968 10.3294 57.587 9.89777C58.6771 9.45123 59.8202 9.22797 61.0163 9.22797C61.6977 9.22797 62.3639 9.30239 63.0149 9.45123C63.6811 9.58519 64.3776 9.80102 65.1044 10.0987V15.3231Z" fill="white"/>
<path d="M67.5343 15.0776H71.645V16.953C72.0841 16.2683 72.6216 15.7474 73.2575 15.3901C73.8934 15.018 74.6353 14.832 75.4832 14.832C75.5892 14.832 75.7027 14.832 75.8239 14.832C75.9601 14.832 76.1115 14.8468 76.2781 14.8766V18.7391C75.733 18.4712 75.1425 18.3372 74.5066 18.3372C73.5528 18.3372 72.8336 18.6201 72.3491 19.1857C71.8797 19.7364 71.645 20.5476 71.645 21.6193V26.5311H67.5343V15.0776Z" fill="white"/>
<path d="M82.2243 15.0776V21.53C82.2243 22.944 82.9208 23.651 84.3138 23.651C85.7067 23.651 86.4032 22.944 86.4032 21.53V15.0776H90.5139V22.3114C90.5139 23.8594 89.9916 25.0204 88.9469 25.7944C87.9173 26.5684 86.3729 26.9553 84.3138 26.9553C82.2546 26.9553 80.7027 26.5684 79.658 25.7944C78.6284 25.0204 78.1136 23.8594 78.1136 22.3114V15.0776H82.2243Z" fill="white"/>
<path d="M101.028 18.0247C100.271 17.6377 99.529 17.4442 98.8023 17.4442C98.4238 17.4442 98.1134 17.5186 97.8711 17.6674C97.644 17.8163 97.5305 18.0172 97.5305 18.2703C97.5305 18.4042 97.5456 18.5159 97.5759 18.6052C97.6213 18.6796 97.7046 18.754 97.8257 18.8284C97.962 18.9029 98.1512 18.9698 98.3935 19.0294C98.6509 19.0889 98.984 19.1633 99.3928 19.2526C100.528 19.4759 101.376 19.8778 101.936 20.4583C102.497 21.0239 102.777 21.7532 102.777 22.6463C102.777 23.3161 102.64 23.9189 102.368 24.4548C102.095 24.9906 101.717 25.4446 101.232 25.8167C100.748 26.1739 100.165 26.4493 99.4836 26.6428C98.8023 26.8512 98.0528 26.9553 97.2352 26.9553C95.6606 26.9553 94.1086 26.5163 92.5794 25.6381L94.0784 22.7803C95.2291 23.5543 96.3192 23.9412 97.3488 23.9412C97.7273 23.9412 98.0377 23.8594 98.2799 23.6957C98.5222 23.5319 98.6433 23.3235 98.6433 23.0705C98.6433 22.9217 98.6206 22.8026 98.5752 22.7133C98.5449 22.6091 98.4692 22.5198 98.3481 22.4454C98.2269 22.3561 98.0452 22.2816 97.803 22.2221C97.5759 22.1477 97.2731 22.0732 96.8945 21.9988C95.6227 21.7458 94.7294 21.3737 94.2146 20.8825C93.715 20.3764 93.4652 19.6843 93.4652 18.8061C93.4652 18.1661 93.5863 17.593 93.8285 17.087C94.0708 16.566 94.419 16.1269 94.8732 15.7697C95.3275 15.4125 95.8725 15.1371 96.5085 14.9436C97.1595 14.7501 97.8787 14.6533 98.666 14.6533C99.953 14.6533 101.202 14.8989 102.413 15.3901L101.028 18.0247Z" fill="white"/>
<path d="M104.861 8H108.972V16.5288C109.532 15.859 110.1 15.4125 110.675 15.1892C111.251 14.951 111.925 14.832 112.697 14.832C114.165 14.832 115.271 15.2338 116.013 16.0376C116.77 16.8265 117.148 17.8982 117.148 19.2526V26.5311H113.037V20.7485C113.037 20.168 112.992 19.6992 112.901 19.342C112.81 18.9847 112.659 18.7094 112.447 18.5159C112.084 18.2033 111.644 18.047 111.13 18.047C110.433 18.047 109.896 18.2554 109.517 18.6722C109.154 19.074 108.972 19.6545 108.972 20.4136V26.5311H104.861V8Z" fill="white"/>
<path d="M128.46 19.141C128.323 18.5754 128.043 18.1214 127.619 17.7791C127.195 17.4367 126.681 17.2656 126.075 17.2656C125.439 17.2656 124.917 17.4293 124.508 17.7568C124.114 18.0842 123.865 18.5456 123.759 19.141H128.46ZM123.645 21.4853C123.645 23.2268 124.478 24.0975 126.143 24.0975C127.036 24.0975 127.71 23.7403 128.164 23.0259H132.139C131.336 25.6455 129.33 26.9553 126.12 26.9553C125.136 26.9553 124.235 26.8139 123.418 26.5311C122.6 26.2335 121.896 25.8167 121.306 25.2808C120.73 24.745 120.284 24.105 119.966 23.3608C119.648 22.6165 119.489 21.783 119.489 20.8602C119.489 19.9076 119.64 19.0517 119.943 18.2926C120.246 17.5186 120.677 16.8637 121.238 16.3278C121.798 15.792 122.472 15.3827 123.259 15.0999C124.061 14.8022 124.962 14.6533 125.962 14.6533C126.946 14.6533 127.831 14.8022 128.619 15.0999C129.406 15.3827 130.072 15.7995 130.617 16.3502C131.162 16.9009 131.579 17.5781 131.866 18.3819C132.154 19.1708 132.298 20.0638 132.298 21.0611V21.4853H123.645Z" fill="white"/>
<path d="M134.648 15.0776H138.758V16.953C139.197 16.2683 139.735 15.7474 140.371 15.3901C141.007 15.018 141.749 14.832 142.597 14.832C142.703 14.832 142.816 14.832 142.937 14.832C143.074 14.832 143.225 14.8468 143.391 14.8766V18.7391C142.846 18.4712 142.256 18.3372 141.62 18.3372C140.666 18.3372 139.947 18.6201 139.462 19.1857C138.993 19.7364 138.758 20.5476 138.758 21.6193V26.5311H134.648V15.0776Z" fill="white"/>
<path d="M143.603 24.3878C143.603 24.0306 143.671 23.6957 143.808 23.3831C143.944 23.0556 144.133 22.7728 144.375 22.5347C144.618 22.2965 144.898 22.1105 145.216 21.9765C145.549 21.8425 145.897 21.7756 146.26 21.7756C146.624 21.7756 146.964 21.8425 147.282 21.9765C147.615 22.1105 147.903 22.2965 148.145 22.5347C148.388 22.7728 148.577 23.0556 148.713 23.3831C148.849 23.6957 148.918 24.0306 148.918 24.3878C148.918 24.745 148.849 25.0873 148.713 25.4148C148.577 25.7274 148.388 26.0027 148.145 26.2409C147.903 26.479 147.615 26.6651 147.282 26.7991C146.964 26.933 146.624 27 146.26 27C145.897 27 145.549 26.933 145.216 26.7991C144.898 26.6651 144.618 26.479 144.375 26.2409C144.133 26.0027 143.944 25.7274 143.808 25.4148C143.671 25.0873 143.603 24.745 143.603 24.3878Z" fill="white"/>
<path d="M155.341 20.7709C155.341 21.143 155.409 21.4928 155.546 21.8202C155.682 22.1328 155.864 22.4081 156.091 22.6463C156.333 22.8845 156.613 23.0705 156.931 23.2045C157.264 23.3384 157.62 23.4054 157.998 23.4054C158.362 23.4054 158.703 23.3384 159.02 23.2045C159.354 23.0705 159.634 22.8845 159.861 22.6463C160.103 22.4081 160.292 22.1328 160.429 21.8202C160.58 21.5076 160.656 21.1727 160.656 20.8155C160.656 20.4583 160.58 20.1234 160.429 19.8108C160.292 19.4834 160.103 19.2005 159.861 18.9624C159.634 18.7242 159.354 18.5382 159.02 18.4042C158.703 18.2703 158.362 18.2033 157.998 18.2033C157.635 18.2033 157.287 18.2703 156.954 18.4042C156.636 18.5382 156.356 18.7242 156.113 18.9624C155.886 19.2005 155.697 19.4759 155.546 19.7885C155.409 20.0862 155.341 20.4136 155.341 20.7709ZM160.519 8H164.653V26.5311H160.519V25.2585C159.641 26.3451 158.453 26.8884 156.954 26.8884C156.106 26.8884 155.326 26.7321 154.615 26.4195C153.903 26.1069 153.282 25.6753 152.752 25.1246C152.222 24.5738 151.806 23.9264 151.503 23.1821C151.215 22.4379 151.072 21.6342 151.072 20.7709C151.072 19.9522 151.208 19.1782 151.48 18.4489C151.768 17.7047 152.169 17.0572 152.684 16.5065C153.199 15.9557 153.812 15.5241 154.524 15.2115C155.25 14.8841 156.045 14.7203 156.908 14.7203C158.362 14.7203 159.566 15.219 160.519 16.2162V8Z" fill="white"/>
<path d="M175.967 19.141C175.831 18.5754 175.551 18.1214 175.127 17.7791C174.703 17.4367 174.188 17.2656 173.582 17.2656C172.946 17.2656 172.424 17.4293 172.015 17.7568C171.622 18.0842 171.372 18.5456 171.266 19.141H175.967ZM171.152 21.4853C171.152 23.2268 171.985 24.0975 173.65 24.0975C174.544 24.0975 175.217 23.7403 175.672 23.0259H179.646C178.844 25.6455 176.838 26.9553 173.628 26.9553C172.644 26.9553 171.743 26.8139 170.925 26.5311C170.107 26.2335 169.403 25.8167 168.813 25.2808C168.238 24.745 167.791 24.105 167.473 23.3608C167.155 22.6165 166.996 21.783 166.996 20.8602C166.996 19.9076 167.147 19.0517 167.45 18.2926C167.753 17.5186 168.185 16.8637 168.745 16.3278C169.305 15.792 169.979 15.3827 170.766 15.0999C171.569 14.8022 172.469 14.6533 173.469 14.6533C174.453 14.6533 175.339 14.8022 176.126 15.0999C176.913 15.3827 177.579 15.7995 178.125 16.3502C178.67 16.9009 179.086 17.5781 179.374 18.3819C179.661 19.1708 179.805 20.0638 179.805 21.0611V21.4853H171.152Z" fill="white"/>
<path d="M184.825 15.0776L187.596 20.9495L190.412 15.0776H195L188.936 26.5311H186.188L180.192 15.0776H184.825Z" fill="white"/>
<rect width="33.0554" height="33.27" rx="15" fill="white"/>
<path d="M7.49692 8.91156C6.89436 8.91156 6.49268 9.31586 6.49268 9.92233V18.0086C6.49268 18.6151 6.89436 19.0194 7.49692 19.0194H9.50546V8.91156H7.49692Z" fill="white"/>
<path d="M9.50488 8.91156V19.0194L13.4783 18.0086V9.92233L9.50488 8.91156Z" fill="white"/>
<path d="M22.4553 25.0842H16.4297V33.2701H22.4553V25.0842Z" fill="white"/>
<path d="M30.3891 20.3334C30.1883 13.6623 26.2717 8.91156 21.4512 8.91156H17.2333L14.4214 9.92233V18.0086L16.1286 19.7269C16.3295 19.9291 16.4299 20.1312 16.4299 20.4345V24.0733H22.4555V20.2323C22.4555 20.1312 22.4555 19.9291 22.5559 19.828L23.1585 18.6151C23.3593 18.2108 23.6606 18.0086 24.0623 18.0086C26.2717 18.1097 28.3806 18.9183 29.9875 20.5355C30.0879 20.8388 30.4896 20.6366 30.3891 20.3334Z" fill="white"/>
<rect width="33.0554" height="33.27" rx="4" fill="url(#paint0_linear)"/>
<path d="M5.52964 8.91156C4.92708 8.91156 4.52539 9.31586 4.52539 9.92233V18.0086C4.52539 18.6151 4.92708 19.0194 5.52964 19.0194H7.53817V8.91156H5.52964Z" fill="white"/>
<path d="M7.5376 8.91156V19.0194L11.511 18.0086V9.92233L7.5376 8.91156Z" fill="white"/>
<path d="M20.4879 24.3584H14.3628V33.27H20.4879V24.3584Z" fill="white"/>
<path d="M28.4223 20.3334C28.2215 13.6623 24.3049 8.91156 19.4844 8.91156H15.2665L12.4546 9.92233V18.0086L14.1618 19.7269C14.3627 19.9291 14.4631 20.1312 14.4631 20.4345V24.0733H20.4887V20.2323C20.4887 20.1312 20.4887 19.9291 20.5891 19.828L21.1917 18.6151C21.3925 18.2108 21.6938 18.0086 22.0955 18.0086C24.3049 18.1097 26.4138 18.9183 28.0206 20.5355C28.2348 20.7937 28.4223 20.6519 28.4223 20.3334Z" fill="white"/>
<defs>
<linearGradient id="paint0_linear" x1="16.5277" y1="0" x2="16.5277" y2="33.27" gradientUnits="userSpaceOnUse">
<stop stop-color="#4F60FF"/>
<stop offset="1" stop-color="#4EB4FF"/>
</linearGradient>
</defs>
</svg>
